# Blender v2.78 (sub 0) OBJ File: 'logo.blend'
# www.blender.org
mtllib logo.mtl
o O_Text.002
v 0.208886 -0.521585 1.009680
v 0.208886 0.992379 1.009680
v 0.208886 0.992379 -1.026305
v 0.208886 -0.521585 -1.026305
v 0.208886 0.594695 -0.677522
v 0.208886 0.594695 0.660897
v 0.208886 -0.097798 0.660897
v 0.208886 -0.097798 -0.677522
v -0.208886 -0.521585 1.009680
v -0.208886 0.992379 1.009680
v -0.208886 0.992379 -1.026305
v -0.208886 -0.521585 -1.026305
v -0.208886 0.594695 -0.677522
v -0.208886 0.594695 0.660897
v -0.208886 -0.097798 0.660897
v -0.208886 -0.097798 -0.677522
v -0.208886 -0.521585 1.009680
v 0.208886 -0.521585 1.009680
v -0.208886 0.992379 1.009680
v 0.208886 0.992379 1.009680
v -0.208886 0.992379 -1.026305
v 0.208886 0.992379 -1.026305
v -0.208886 -0.521585 -1.026305
v 0.208886 -0.521585 -1.026305
v -0.208886 0.594695 -0.677522
v 0.208886 0.594695 -0.677522
v -0.208886 0.594695 0.660897
v 0.208886 0.594695 0.660897
v -0.208886 -0.097798 0.660897
v 0.208886 -0.097798 0.660897
v -0.208886 -0.097798 -0.677522
v 0.208886 -0.097798 -0.677522
vn 1.0000 -0.0000 0.0000
vn -1.0000 0.0000 -0.0000
vn 0.0000 -0.7071 0.7071
vn 0.0000 0.7071 0.7071
vn 0.0000 0.7071 -0.7071
vn 0.0000 -0.7071 -0.7071
usemtl Orange
s off
f 4//1 7//1 1//1
f 7//1 2//1 1//1
f 7//1 6//1 2//1
f 6//1 3//1 2//1
f 4//1 8//1 7//1
f 5//1 3//1 6//1
f 4//1 5//1 8//1
f 4//1 3//1 5//1
f 15//2 12//2 9//2
f 10//2 15//2 9//2
f 14//2 15//2 10//2
f 11//2 14//2 10//2
f 16//2 12//2 15//2
f 11//2 13//2 14//2
f 13//2 12//2 16//2
f 11//2 12//2 13//2
s 1
f 18//3 20//4 19//4 17//3
f 20//4 22//5 21//5 19//4
f 22//5 24//6 23//6 21//5
f 24//6 18//3 17//3 23//6
f 26//3 28//6 27//6 25//3
f 28//6 30//5 29//5 27//6
f 30//5 32//4 31//4 29//5
f 32//4 26//3 25//3 31//4
o Only_Text.001
v 0.217560 -0.179139 -3.952653
v 0.217560 -0.356432 -3.863266
v 0.217560 -0.533726 -3.863266
v 0.217560 -0.533726 -3.795114
v 0.217560 -0.356432 -3.795114
v 0.217560 -0.179139 -3.709184
v 0.217560 -0.179139 -3.777335
v 0.217560 -0.291738 -3.832400
v 0.217560 -0.179139 -3.888700
v 0.217560 -0.179139 -3.484480
v 0.217560 -0.472982 -3.484480
v 0.217560 -0.472982 -3.659798
v 0.217560 -0.533726 -3.659798
v 0.217560 -0.533726 -3.416328
v 0.217560 -0.179139 -3.416328
v 0.217560 -0.329024 -3.191625
v 0.217560 -0.533726 -3.191625
v 0.217560 -0.533726 -3.123473
v 0.217560 -0.179139 -3.123473
v 0.217560 -0.179139 -3.191625
v 0.217560 -0.377915 -3.302989
v 0.217560 -0.179139 -3.302989
v 0.217560 -0.179139 -3.366943
v 0.217560 -0.533726 -3.366943
v 0.217560 -0.533726 -3.302989
v 0.217560 -0.179139 -2.830618
v 0.217560 -0.179139 -3.074088
v 0.217560 -0.533726 -3.074088
v 0.217560 -0.533726 -2.830618
v 0.217560 -0.472982 -3.010134
v 0.217560 -0.239883 -3.010134
v 0.217560 -0.239883 -2.898770
v 0.217560 -0.472982 -2.898770
v -0.217560 -0.179139 -3.952653
v -0.217560 -0.356432 -3.863266
v -0.217560 -0.533726 -3.863266
v -0.217560 -0.533726 -3.795114
v -0.217560 -0.356432 -3.795114
v -0.217560 -0.179139 -3.709184
v -0.217560 -0.179139 -3.777335
v -0.217560 -0.291738 -3.832400
v -0.217560 -0.179139 -3.888700
v -0.217560 -0.179139 -3.484480
v -0.217560 -0.472982 -3.484480
v -0.217560 -0.472982 -3.659798
v -0.217560 -0.533726 -3.659798
v -0.217560 -0.533726 -3.416328
v -0.217560 -0.179139 -3.416328
v -0.217560 -0.329024 -3.191625
v -0.217560 -0.533726 -3.191625
v -0.217560 -0.533726 -3.123473
v -0.217560 -0.179139 -3.123473
v -0.217560 -0.179139 -3.191625
v -0.217560 -0.377915 -3.302989
v -0.217560 -0.179139 -3.302989
v -0.217560 -0.179139 -3.366943
v -0.217560 -0.533726 -3.366943
v -0.217560 -0.533726 -3.302989
v -0.217560 -0.179139 -2.830618
v -0.217560 -0.179139 -3.074088
v -0.217560 -0.533726 -3.074088
v -0.217560 -0.533726 -2.830618
v -0.217560 -0.472982 -3.010134
v -0.217560 -0.239883 -3.010134
v -0.217560 -0.239883 -2.898770
v -0.217560 -0.472982 -2.898770
v -0.217560 -0.179139 -2.830618
v 0.217560 -0.179139 -2.830618
v -0.217560 -0.179139 -3.074088
v 0.217560 -0.179139 -3.074088
v -0.217560 -0.533726 -3.074088
v 0.217560 -0.533726 -3.074088
v -0.217560 -0.533726 -2.830618
v 0.217560 -0.533726 -2.830618
v -0.217560 -0.472982 -3.010134
v 0.217560 -0.472982 -3.010134
v -0.217560 -0.239883 -3.010134
v 0.217560 -0.239883 -3.010134
v -0.217560 -0.239883 -2.898770
v 0.217560 -0.239883 -2.898770
v -0.217560 -0.472982 -2.898770
v 0.217560 -0.472982 -2.898770
v -0.217560 -0.329024 -3.191625
v 0.217560 -0.329024 -3.191625
v -0.217560 -0.533726 -3.191625
v 0.217560 -0.533726 -3.191625
v -0.217560 -0.533726 -3.123473
v 0.217560 -0.533726 -3.123473
v -0.217560 -0.179139 -3.123473
v 0.217560 -0.179139 -3.123473
v -0.217560 -0.179139 -3.191625
v 0.217560 -0.179139 -3.191625
v -0.217560 -0.377915 -3.302989
v 0.217560 -0.377915 -3.302989
v -0.217560 -0.179139 -3.302989
v 0.217560 -0.179139 -3.302989
v -0.217560 -0.179139 -3.366943
v 0.217560 -0.179139 -3.366943
v -0.217560 -0.533726 -3.366943
v 0.217560 -0.533726 -3.366943
v -0.217560 -0.533726 -3.302989
v 0.217560 -0.533726 -3.302989
v -0.217560 -0.179139 -3.484480
v 0.217560 -0.179139 -3.484480
v -0.217560 -0.472982 -3.484480
v 0.217560 -0.472982 -3.484480
v -0.217560 -0.472982 -3.659798
v 0.217560 -0.472982 -3.659798
v -0.217560 -0.533726 -3.659798
v 0.217560 -0.533726 -3.659798
v -0.217560 -0.533726 -3.416328
v 0.217560 -0.533726 -3.416328
v -0.217560 -0.179139 -3.416328
v 0.217560 -0.179139 -3.416328
v -0.217560 -0.179139 -3.952653
v 0.217560 -0.179139 -3.952653
v -0.217560 -0.356432 -3.863266
v 0.217560 -0.356432 -3.863266
v -0.217560 -0.533726 -3.863266
v 0.217560 -0.533726 -3.863266
v -0.217560 -0.533726 -3.795114
v 0.217560 -0.533726 -3.795114
v -0.217560 -0.356432 -3.795114
v 0.217560 -0.356432 -3.795114
v -0.217560 -0.179139 -3.709184
v 0.217560 -0.179139 -3.709184
v -0.217560 -0.179139 -3.777335
v 0.217560 -0.179139 -3.777335
v -0.217560 -0.291738 -3.832400
v 0.217560 -0.291738 -3.832400
v -0.217560 -0.179139 -3.888700
v 0.217560 -0.179139 -3.888700
vn 1.0000 0.0000 0.0000
vn -1.0000 -0.0000 0.0000
vn 0.0000 0.7071 0.7071
vn 0.0000 0.7071 -0.7071
vn 0.0000 -0.7071 -0.7071
vn 0.0000 -0.7071 0.7071
vn 0.0000 -0.9691 -0.2465
vn 0.0000 0.8628 -0.5056
vn 0.0000 0.9676 0.2526
vn 0.0000 -0.8596 0.5109
vn 0.0000 0.5243 -0.8515
vn 0.0000 -0.2314 -0.9728
vn 0.0000 -0.2237 0.9746
vn 0.0000 0.5310 0.8474
vn 0.0000 0.8483 -0.5295
vn 0.0000 1.0000 -0.0044
vn 0.0000 0.8506 0.5257
usemtl Bleu
s off
f 37//7 39//7 38//7
f 37//7 40//7 39//7
f 40//7 33//7 41//7
f 40//7 34//7 33//7
f 37//7 34//7 40//7
f 36//7 34//7 37//7
f 36//7 35//7 34//7
f 46//7 42//7 47//7
f 46//7 43//7 42//7
f 46//7 44//7 43//7
f 46//7 45//7 44//7
f 50//7 52//7 51//7
f 50//7 48//7 52//7
f 48//7 53//7 52//7
f 53//7 55//7 54//7
f 53//7 56//7 55//7
f 50//7 49//7 48//7
f 57//7 53//7 48//7
f 57//7 56//7 53//7
f 61//7 64//7 58//7
f 64//7 59//7 58//7
f 64//7 63//7 59//7
f 63//7 60//7 59//7
f 61//7 65//7 64//7
f 62//7 60//7 63//7
f 61//7 62//7 65//7
f 61//7 60//7 62//7
f 72//8 70//8 71//8
f 73//8 70//8 72//8
f 66//8 73//8 74//8
f 67//8 73//8 66//8
f 67//8 70//8 73//8
f 67//8 69//8 70//8
f 68//8 69//8 67//8
f 75//8 79//8 80//8
f 76//8 79//8 75//8
f 77//8 79//8 76//8
f 78//8 79//8 77//8
f 85//8 83//8 84//8
f 81//8 83//8 85//8
f 86//8 81//8 85//8
f 88//8 86//8 87//8
f 89//8 86//8 88//8
f 82//8 83//8 81//8
f 86//8 90//8 81//8
f 89//8 90//8 86//8
f 97//8 94//8 91//8
f 92//8 97//8 91//8
f 96//8 97//8 92//8
f 93//8 96//8 92//8
f 98//8 94//8 97//8
f 93//8 95//8 96//8
f 95//8 94//8 98//8
f 93//8 94//8 95//8
s 1
f 100//9 102//10 101//10 99//9
f 102//10 104//11 103//11 101//10
f 104//11 106//12 105//12 103//11
f 106//12 100//9 99//9 105//12
f 108//9 110//12 109//12 107//9
f 110//12 112//11 111//11 109//12
f 112//11 114//10 113//10 111//11
f 114//10 108//9 107//9 113//10
f 116//13 118//11 117//11 115//13
f 118//11 120//12 119//12 117//11
f 120//12 122//9 121//9 119//12
f 122//9 124//14 123//14 121//9
f 124//14 126//15 125//15 123//14
f 126//15 128//9 127//9 125//15
f 128//9 130//10 129//10 127//9
f 130//10 132//11 131//11 129//10
f 132//11 134//16 133//16 131//11
f 134//16 116//13 115//13 133//16
f 136//10 138//10 137//10 135//10
f 138//10 140//10 139//10 137//10
f 140//10 142//11 141//11 139//10
f 142//11 144//12 143//12 141//11
f 144//12 146//9 145//9 143//12
f 146//9 136//10 135//10 145//9
f 148//17 150//18 149//18 147//17
f 150//18 152//11 151//11 149//18
f 152//11 154//12 153//12 151//11
f 154//12 156//19 155//19 153//12
f 156//19 158//20 157//20 155//19
f 158//20 160//21 159//21 157//20
f 160//21 162//22 161//22 159//21
f 162//22 164//23 163//23 161//22
f 164//23 148//17 147//17 163//23
o Cone
v 0.217844 0.459880 -3.817237
v 0.217844 0.554286 -3.807939
v 0.217844 0.645064 -3.780401
v 0.217844 0.728725 -3.735683
v 0.217844 0.802055 -3.675503
v 0.217844 0.862235 -3.602173
v 0.217844 0.906953 -3.518512
v 0.217844 0.934490 -3.427734
v 0.217844 0.943788 -3.333328
v -0.930012 0.459880 -3.333328
v 0.217844 0.934490 -3.238922
v 0.217844 0.906953 -3.148144
v 0.217844 0.862235 -3.064483
v 0.217844 0.802055 -2.991153
v 0.217844 0.728725 -2.930973
v 0.217844 0.645063 -2.886255
v 0.217844 0.554285 -2.858717
v 0.217844 0.459880 -2.849419
v 0.217844 0.365474 -2.858718
v 0.217844 0.274696 -2.886255
v 0.217844 0.191034 -2.930973
v 0.217844 0.117704 -2.991153
v 0.217844 0.057524 -3.064483
v 0.217844 0.012806 -3.148144
v 0.217844 -0.014731 -3.238923
v 0.217844 -0.024029 -3.333328
v 0.217844 -0.014731 -3.427734
v 0.217844 0.012807 -3.518512
v 0.217844 0.057525 -3.602174
v 0.217844 0.117705 -3.675503
v 0.217844 0.191035 -3.735684
v 0.217844 0.274697 -3.780401
v 0.217844 0.365475 -3.807939
vn -0.3869 0.0904 -0.9177
vn -0.3869 0.2677 -0.8824
vn -0.3869 0.4347 -0.8132
vn -0.3869 0.5850 -0.7128
vn -0.3869 0.7128 -0.5850
vn -0.3869 0.8132 -0.4347
vn -0.3869 0.8824 -0.2677
vn -0.3869 0.9177 -0.0904
vn -0.3869 0.9177 0.0904
vn -0.3869 0.8824 0.2677
vn -0.3869 0.8132 0.4347
vn -0.3869 0.7128 0.5850
vn -0.3869 0.5850 0.7128
vn -0.3869 0.4347 0.8132
vn -0.3869 0.2677 0.8824
vn -0.3869 0.0904 0.9177
vn -0.3869 -0.0904 0.9177
vn -0.3869 -0.2677 0.8824
vn -0.3869 -0.4347 0.8132
vn -0.3869 -0.5850 0.7128
vn -0.3869 -0.7128 0.5850
vn -0.3869 -0.8132 0.4347
vn -0.3869 -0.8824 0.2677
vn -0.3869 -0.9177 0.0904
vn -0.3869 -0.9177 -0.0904
vn -0.3869 -0.8824 -0.2677
vn -0.3869 -0.8132 -0.4347
vn -0.3869 -0.7128 -0.5850
vn -0.3869 -0.5850 -0.7128
vn -0.3869 -0.4347 -0.8132
vn -0.3869 -0.2677 -0.8824
vn -0.3869 -0.0904 -0.9177
vn 1.0000 -0.0000 -0.0000
usemtl Orange
s off
f 165//24 174//24 166//24
f 166//25 174//25 167//25
f 167//26 174//26 168//26
f 168//27 174//27 169//27
f 169//28 174//28 170//28
f 170//29 174//29 171//29
f 171//30 174//30 172//30
f 172//31 174//31 173//31
f 173//32 174//32 175//32
f 175//33 174//33 176//33
f 176//34 174//34 177//34
f 177//35 174//35 178//35
f 178//36 174//36 179//36
f 179//37 174//37 180//37
f 180//38 174//38 181//38
f 181//39 174//39 182//39
f 182//40 174//40 183//40
f 183//41 174//41 184//41
f 184//42 174//42 185//42
f 185//43 174//43 186//43
f 186//44 174//44 187//44
f 187//45 174//45 188//45
f 188//46 174//46 189//46
f 189//47 174//47 190//47
f 190//48 174//48 191//48
f 191//49 174//49 192//49
f 192//50 174//50 193//50
f 193//51 174//51 194//51
f 194//52 174//52 195//52
f 195//53 174//53 196//53
f 196//54 174//54 197//54
f 197//55 174//55 165//55
f 165//56 166//56 167//56 168//56 169//56 170//56 171//56 172//56 173//56 175//56 176//56 177//56 178//56 179//56 180//56 181//56 182//56 183//56 184//56 185//56 186//56 187//56 188//56 189//56 190//56 191//56 192//56 193//56 194//56 195//56 196//56 197//56
o Motion_Text
v 0.217982 0.348202 -4.308164
v 0.217982 -0.533726 -4.308164
v 0.217982 -0.533726 -4.014542
v 0.217982 0.993956 -4.014542
v 0.217982 0.993956 -4.308164
v 0.217982 0.137561 -4.787958
v 0.217982 0.993956 -4.787958
v 0.217982 0.993956 -5.063494
v 0.217983 -0.533726 -5.063494
v 0.217983 -0.533726 -4.787958
v 0.217982 0.993956 -2.720906
v 0.217982 -0.533726 -2.720906
v 0.217982 -0.533726 -2.427285
v 0.217982 0.993956 -2.427285
v 0.217982 -0.533726 -1.562378
v 0.217982 0.732250 -1.562378
v 0.217982 0.732250 -1.165564
v 0.217982 0.993956 -1.165564
v 0.217982 0.993956 -2.214516
v 0.217982 0.732250 -2.214516
v 0.217982 0.732250 -1.855999
v 0.217982 -0.533726 -1.855999
v 0.217982 0.105645 2.091932
v 0.217982 -0.533726 2.091932
v 0.217982 -0.533726 2.385553
v 0.217982 0.993956 2.385553
v 0.217982 0.993956 2.091932
v 0.217982 0.156710 1.794055
v 0.217982 0.993956 1.484476
v 0.217982 0.993956 1.208940
v 0.217982 -0.533726 1.208940
v 0.217982 -0.533726 1.484476
v 0.217982 0.105645 1.484476
v 0.217982 -0.533726 1.698309
v 0.217982 -0.533726 1.870652
v -0.217982 0.348202 -4.308164
v -0.217981 -0.533726 -4.308164
v -0.217981 -0.533726 -4.014542
v -0.217982 0.993956 -4.014542
v -0.217982 0.993956 -4.308164
v -0.217981 0.137561 -4.787958
v -0.217982 0.993956 -4.787958
v -0.217982 0.993956 -5.063494
v -0.217981 -0.533726 -5.063494
v -0.217981 -0.533726 -4.787958
v -0.217982 0.993956 -2.720906
v -0.217982 -0.533726 -2.720906
v -0.217982 -0.533726 -2.427285
v -0.217982 0.993956 -2.427285
v -0.217982 -0.533726 -1.562378
v -0.217982 0.732250 -1.562378
v -0.217982 0.732250 -1.165564
v -0.217982 0.993956 -1.165564
v -0.217982 0.993956 -2.214516
v -0.217982 0.732250 -2.214516
v -0.217982 0.732250 -1.855999
v -0.217982 -0.533726 -1.855999
v -0.217982 0.105645 2.091932
v -0.217982 -0.533726 2.091932
v -0.217982 -0.533726 2.385553
v -0.217982 0.993956 2.385553
v -0.217982 0.993956 2.091932
v -0.217982 0.156710 1.794055
v -0.217982 0.993956 1.484476
v -0.217982 0.993956 1.208940
v -0.217982 -0.533726 1.208940
v -0.217982 -0.533726 1.484476
v -0.217982 0.105645 1.484476
v -0.217982 -0.533726 1.698309
v -0.217982 -0.533726 1.870652
v -0.217982 0.105645 2.091932
v 0.217982 0.105645 2.091932
v -0.217982 -0.533726 2.091932
v 0.217982 -0.533726 2.091932
v -0.217982 -0.533726 2.385553
v 0.217982 -0.533726 2.385553
v -0.217982 0.993956 2.385553
v 0.217982 0.993956 2.385553
v -0.217982 0.993956 2.091932
v 0.217982 0.993956 2.091932
v -0.217982 0.156710 1.794055
v 0.217982 0.156710 1.794055
v -0.217982 0.993956 1.484476
v 0.217982 0.993956 1.484476
v -0.217982 0.993956 1.208940
v 0.217982 0.993956 1.208940
v -0.217982 -0.533726 1.208940
v 0.217982 -0.533726 1.208940
v -0.217982 -0.533726 1.484476
v 0.217982 -0.533726 1.484476
v -0.217982 0.105645 1.484476
v 0.217982 0.105645 1.484476
v -0.217982 -0.533726 1.698309
v 0.217982 -0.533726 1.698309
v -0.217982 -0.533726 1.870652
v 0.217982 -0.533726 1.870652
v -0.217982 -0.533726 -1.562378
v 0.217982 -0.533726 -1.562378
v -0.217982 0.732250 -1.562378
v 0.217982 0.732250 -1.562378
v -0.217982 0.732250 -1.165564
v 0.217982 0.732250 -1.165564
v -0.217982 0.993956 -1.165564
v 0.217982 0.993956 -1.165564
v -0.217982 0.993956 -2.214516
v 0.217982 0.993956 -2.214516
v -0.217982 0.732250 -2.214516
v 0.217982 0.732250 -2.214516
v -0.217982 0.732250 -1.855999
v 0.217982 0.732250 -1.855999
v -0.217982 -0.533726 -1.855999
v 0.217982 -0.533726 -1.855999
v -0.217982 0.993956 -2.720906
v 0.217982 0.993956 -2.720906
v -0.217982 -0.533726 -2.720906
v 0.217982 -0.533726 -2.720906
v -0.217982 -0.533726 -2.427285
v 0.217982 -0.533726 -2.427285
v -0.217982 0.993956 -2.427285
v 0.217982 0.993956 -2.427285
v -0.217982 0.348202 -4.308164
v 0.217982 0.348202 -4.308164
v -0.217981 -0.533726 -4.308164
v 0.217982 -0.533726 -4.308164
v -0.217981 -0.533726 -4.014542
v 0.217982 -0.533726 -4.014542
v -0.217982 0.993956 -4.014542
v 0.217982 0.993956 -4.014542
v -0.217982 0.993956 -4.308164
v 0.217982 0.993956 -4.308164
v -0.217981 0.137561 -4.787958
v 0.217982 0.137561 -4.787958
v -0.217982 0.993956 -4.787958
v 0.217982 0.993956 -4.787958
v -0.217982 0.993956 -5.063494
v 0.217982 0.993956 -5.063494
v -0.217981 -0.533726 -5.063494
v 0.217983 -0.533726 -5.063494
v -0.217981 -0.533726 -4.787958
v 0.217983 -0.533726 -4.787958
vn 1.0000 0.0000 0.0000
vn 0.0000 -1.0000 -0.0000
vn 0.0000 1.0000 0.0000
vn -1.0000 -0.0000 -0.0000
vn 0.0000 -0.9861 -0.1658
vn 0.0000 -0.7071 -0.7071
vn 0.0000 -0.7071 0.7071
vn 0.0000 0.7071 0.7071
vn 0.0000 0.8170 -0.5765
vn 0.0000 1.0000 -0.0062
vn 0.0000 0.8206 0.5715
vn 0.0000 0.7071 -0.7071
vn 0.0000 -0.9870 0.1606
vn 0.0000 -0.8115 -0.5843
vn 0.0000 -0.8146 0.5800
vn 0.0000 -0.9691 -0.2465
vn 0.0000 0.8628 -0.5056
vn 0.0000 0.9676 0.2526
vn 0.0000 -0.8596 0.5109
usemtl Bleu
s off
f 200//57 202//57 201//57
f 200//57 198//57 202//57
f 198//57 203//57 202//57
f 203//57 205//57 204//57
f 203//57 206//57 205//57
f 200//57 199//57 198//57
f 207//57 203//57 198//57
f 207//57 206//57 203//57
f 210//57 208//57 211//57
f 210//57 209//57 208//57
f 214//57 216//57 215//57
f 214//57 217//57 216//57
f 213//58 217//58 214//58
f 212//57 218//57 213//57
f 218//59 217//59 213//59
f 212//57 219//57 218//57
f 222//57 224//57 223//57
f 222//57 220//57 224//57
f 220//57 225//57 224//57
f 225//57 227//57 226//57
f 225//57 230//57 227//57
f 230//57 228//57 227//57
f 220//57 230//57 225//57
f 222//57 221//57 220//57
f 232//57 230//57 220//57
f 232//57 231//57 230//57
f 229//57 228//57 230//57
f 237//60 235//60 236//60
f 233//60 235//60 237//60
f 238//60 233//60 237//60
f 240//60 238//60 239//60
f 241//60 238//60 240//60
f 234//60 235//60 233//60
f 238//60 242//60 233//60
f 241//60 242//60 238//60
f 243//60 245//60 246//60
f 244//60 245//60 243//60
f 251//60 249//60 250//60
f 252//60 249//60 251//60
f 252//59 248//59 249//59
f 253//60 247//60 248//60
f 252//58 253//58 248//58
f 254//60 247//60 253//60
f 259//60 257//60 258//60
f 255//60 257//60 259//60
f 260//60 255//60 259//60
f 262//60 260//60 261//60
f 265//60 260//60 262//60
f 263//60 265//60 262//60
f 265//60 255//60 260//60
f 256//60 257//60 255//60
f 265//60 267//60 255//60
f 266//60 267//60 265//60
f 263//60 264//60 265//60
s 1
f 269//61 271//62 270//62 268//61
f 271//62 273//63 272//63 270//62
f 273//63 275//64 274//64 272//63
f 275//64 277//65 276//65 274//64
f 277//65 279//66 278//66 276//65
f 279//66 281//67 280//67 278//66
f 281//67 283//68 282//68 280//67
f 283//68 285//62 284//62 282//68
f 285//62 287//63 286//63 284//62
f 287//63 289//69 288//69 286//63
f 289//69 291//70 290//70 288//69
f 291//70 293//71 292//71 290//70
f 293//71 269//61 268//61 292//71
f 295//63 297//63 296//63 294//63
f 297//63 299//63 298//63 296//63
f 299//63 301//64 300//64 298//63
f 301//64 303//68 302//68 300//64
f 303//68 305//62 304//62 302//68
f 305//62 307//62 306//62 304//62
f 307//62 309//62 308//62 306//62
f 309//62 295//63 294//63 308//62
f 311//68 313//62 312//62 310//68
f 313//62 315//63 314//63 312//62
f 315//63 317//64 316//64 314//63
f 317//64 311//68 310//68 316//64
f 319//72 321//62 320//62 318//72
f 321//62 323//63 322//63 320//62
f 323//63 325//64 324//64 322//63
f 325//64 327//73 326//73 324//64
f 327//73 329//74 328//74 326//73
f 329//74 331//64 330//64 328//74
f 331//64 333//68 332//68 330//64
f 333//68 335//62 334//62 332//68
f 335//62 337//75 336//75 334//62
f 337//75 319//72 318//72 336//75
